<mxfile host="app.diagrams.net" modified="2021-12-22T14:47:54.910Z" agent="5.0 (Windows)" etag="gphjFupfS3FfRzS7cVry" version="16.0.3" type="github">
  <diagram id="x6WnCN_fm9500EprQvus" name="Page-1">
    <mxGraphModel dx="738" dy="1002" grid="0" gridSize="10" guides="0" tooltips="1" connect="0" arrows="0" fold="1" page="0" pageScale="1" pageWidth="827" pageHeight="1169" background="#4F4F4F" math="0" shadow="0">
      <root>
        <mxCell id="0" />
        <mxCell id="1" parent="0" />
        <mxCell id="k-mFILf2G4jGY5wbjGQ8-4" value="" style="verticalLabelPosition=bottom;verticalAlign=top;html=1;shape=mxgraph.basic.rect;fillColor2=none;strokeWidth=2;size=20;indent=5;sketch=0;fontColor=#182E3E;fillColor=none;gradientColor=#ffffff;" vertex="1" parent="1">
          <mxGeometry x="836" y="13" width="135" height="74" as="geometry" />
        </mxCell>
        <mxCell id="k-mFILf2G4jGY5wbjGQ8-5" value="" style="verticalLabelPosition=bottom;verticalAlign=top;html=1;shape=mxgraph.basic.rect;fillColor2=none;strokeWidth=2;size=20;indent=5;sketch=0;fontColor=#182E3E;fillColor=none;gradientColor=#ffffff;" vertex="1" parent="1">
          <mxGeometry x="836" y="88" width="135" height="74" as="geometry" />
        </mxCell>
        <mxCell id="k-mFILf2G4jGY5wbjGQ8-6" value="" style="verticalLabelPosition=bottom;verticalAlign=top;html=1;shape=mxgraph.basic.rect;fillColor2=none;strokeWidth=2;size=20;indent=5;sketch=0;fontColor=#182E3E;fillColor=none;gradientColor=#ffffff;" vertex="1" parent="1">
          <mxGeometry x="836" y="163" width="135" height="74" as="geometry" />
        </mxCell>
        <mxCell id="k-mFILf2G4jGY5wbjGQ8-7" value="" style="verticalLabelPosition=bottom;verticalAlign=top;html=1;shape=mxgraph.basic.rect;fillColor2=none;strokeWidth=2;size=20;indent=5;sketch=0;fontColor=#182E3E;fillColor=none;gradientColor=#ffffff;" vertex="1" parent="1">
          <mxGeometry x="836" y="238" width="135" height="74" as="geometry" />
        </mxCell>
        <mxCell id="k-mFILf2G4jGY5wbjGQ8-8" value="Varriable" style="text;html=1;resizable=0;autosize=1;align=center;verticalAlign=middle;points=[];rounded=0;sketch=0;strokeWidth=1;fontSize=30;fontColor=#FFFFFF;" vertex="1" parent="1">
          <mxGeometry x="647" y="-47" width="128" height="40" as="geometry" />
        </mxCell>
      </root>
    </mxGraphModel>
  </diagram>
</mxfile>
